<?xml version="1.0" encoding="iso-8859-1"?>
<!-- Generator: Adobe Illustrator 19.0.0, SVG Export Plug-In . SVG Version: 6.00 Build 0)  -->
<svg xmlns="http://www.w3.org/2000/svg" xmlns:xlink="http://www.w3.org/1999/xlink" version="1.1" id="Capa_1" x="0px" y="0px" viewBox="0 0 512.002 512.002" style="enable-background:new 0 0 512.002 512.002;" xml:space="preserve" width="512px" height="512px">
<g>
	<g>
		<path d="M422.371,344.406c-26.619-26.622-69.935-26.619-96.556-0.003l-96.556,96.558c-26.62,26.623-69.936,26.623-96.559,0    c-20.977-20.977-25.411-52.321-13.323-77.695l7.959,7.961c4.415,4.415,10.245,6.668,16.1,6.667c4.907,0,9.835-1.581,13.966-4.793    L292.22,268.24c-8.83-2.205-17.427-5.162-25.71-8.835c-7.562-3.355-14.858-7.318-21.841-11.847    c-9.331-6.052-18.098-13.12-26.142-21.166c-0.062-0.062-0.121-0.123-0.184-0.185c-8.034-8.063-15.018-16.781-20.965-25.978    c-4.549-7.036-8.487-14.353-11.815-21.879c-3.696-8.352-6.638-16.958-8.827-25.717L71.825,287.519    c-7.046,9.061-6.247,21.95,1.871,30.066l12.349,12.349c-29.207,44.16-24.382,104.358,14.473,143.218    c44.367,44.364,116.561,44.366,160.928-0.002l96.556-96.558c8.876-8.873,23.313-8.873,32.188,0.002    c4.297,4.298,6.665,10.012,6.665,16.09c0,6.08-2.368,11.797-6.668,16.095l-64.371,64.371c-8.887,8.887-8.887,23.297,0,32.185    c4.445,4.445,10.269,6.667,16.093,6.667c5.823,0,11.649-2.221,16.09-6.667l64.371-64.371c12.897-12.897,20-30.043,20-48.28    S435.268,357.3,422.371,344.406z" fill="#006DF0"/>
	</g>
</g>
<g>
	<g>
		<path d="M411.643,33.275C389.462,11.094,360.317,0,331.178,0c-21.906,0-43.805,6.268-62.752,18.802l157.704,157.704    c12.253-18.457,18.844-40.104,18.841-62.766C444.975,83.345,433.136,54.77,411.643,33.275z" fill="#006DF0"/>
	</g>
</g>
<g>
	<g>
		<path d="M236.24,50.987c-9.723,14.701-15.649,31.182-17.828,48.059c-1.539,11.894-1.212,23.98,0.995,35.786    c1.69,9.022,4.47,17.873,8.343,26.346c5.476,11.971,13.121,23.185,22.964,33.026v0.002c9.841,9.841,21.058,17.488,33.031,22.965    c8.472,3.874,17.324,6.653,26.341,8.342c6.967,1.303,14.029,1.969,21.093,1.969c4.91,0,9.818-0.343,14.696-0.973    c16.876-2.179,33.358-8.107,48.057-17.831L236.24,50.987z" fill="#006DF0"/>
	</g>
</g>
<g>
</g>
<g>
</g>
<g>
</g>
<g>
</g>
<g>
</g>
<g>
</g>
<g>
</g>
<g>
</g>
<g>
</g>
<g>
</g>
<g>
</g>
<g>
</g>
<g>
</g>
<g>
</g>
<g>
</g>
</svg>
