<?xml version="1.0" encoding="UTF-8" standalone="no"?>
<!-- Generator: Adobe Illustrator 19.0.0, SVG Export Plug-In . SVG Version: 6.00 Build 0)  -->

<svg
   xmlns:dc="http://purl.org/dc/elements/1.1/"
   xmlns:cc="http://creativecommons.org/ns#"
   xmlns:rdf="http://www.w3.org/1999/02/22-rdf-syntax-ns#"
   xmlns:svg="http://www.w3.org/2000/svg"
   xmlns="http://www.w3.org/2000/svg"
   xmlns:sodipodi="http://sodipodi.sourceforge.net/DTD/sodipodi-0.dtd"
   xmlns:inkscape="http://www.inkscape.org/namespaces/inkscape"
   version="1.1"
   id="Capa_1"
   x="0px"
   y="0px"
   viewBox="0 0 512 512"
   style="enable-background:new 0 0 512 512;"
   xml:space="preserve"
   sodipodi:docname="icon.svg"
   inkscape:version="0.92.3 (2405546, 2018-03-11)"
   inkscape:export-filename="C:\Users\Noob\Desktop\icon.png"
   inkscape:export-xdpi="96"
   inkscape:export-ydpi="96"><metadata
   id="metadata4952"><rdf:RDF><cc:Work
       rdf:about=""><dc:format>image/svg+xml</dc:format><dc:type
         rdf:resource="http://purl.org/dc/dcmitype/StillImage" /><dc:title /></cc:Work></rdf:RDF></metadata><defs
   id="defs4950" /><sodipodi:namedview
   pagecolor="#ffffff"
   bordercolor="#666666"
   borderopacity="1"
   objecttolerance="10"
   gridtolerance="10"
   guidetolerance="10"
   inkscape:pageopacity="0"
   inkscape:pageshadow="2"
   inkscape:window-width="1366"
   inkscape:window-height="705"
   id="namedview4948"
   showgrid="false"
   inkscape:zoom="1"
   inkscape:cx="84.592965"
   inkscape:cy="281.71347"
   inkscape:window-x="-8"
   inkscape:window-y="-8"
   inkscape:window-maximized="1"
   inkscape:current-layer="Capa_1"
   inkscape:showpageshadow="false" />
<path
   style="fill:#1bd9de;stroke-width:0.98839784"
   d="m 2.970149,78.088379 c 0,8.30156 6.5224374,14.825976 14.825968,14.825976 H 34.59888 V 196.69612 c 0,8.30156 6.522442,14.82597 14.825972,14.82597 8.303531,0 14.82596,-6.52441 14.82596,-14.82597 V 78.088379 c 0,-8.303525 -6.522429,-14.825967 -14.82596,-14.825967 H 17.796117 c -8.3035306,0 -14.825968,6.522442 -14.825968,14.825967 z"
   id="path4875"
   inkscape:connector-curvature="0" />
<path
   style="fill:#1de8f1;stroke-width:0.98839784"
   d="m 49.424852,163.78247 c 7.709495,-7.11843 18.087678,-11.56424 29.651933,-11.56424 24.612095,0 44.477905,19.86579 44.477905,44.47789 0,24.61012 -19.86581,44.4779 -44.477905,44.4779 -11.564255,0 -21.942438,-4.44875 -29.651933,-11.56423 -9.192099,-8.00703 -14.825972,-19.86583 -14.825972,-32.91367 0,-13.04784 5.633873,-24.90861 14.825972,-32.91365 z"
   id="path4877"
   inkscape:connector-curvature="0" />
<path
   style="fill:#994c0f;stroke-width:0.98839784"
   d="m 34.59888,458.02753 c 0,28.16934 22.832982,51.00232 51.00035,51.00232 h 364.12674 c 32.61615,0 59.30388,-26.68773 59.30388,-59.30388 0,-17.79215 -8.00702,-33.80319 -20.45985,-44.47789 -10.37717,-9.48861 -24.01806,-14.82597 -38.84403,-14.82597 h -14.82595 c -8.30353,0 -14.82598,6.52244 -14.82598,14.82597 0,8.30156 6.52245,14.82596 14.82598,14.82596 h 14.82595 c 16.30858,0 29.65195,13.34337 29.65195,29.65193 0,16.30858 -13.34337,29.65195 -29.65195,29.65195 H 85.59923 c -11.859798,0 -21.348418,-9.48862 -21.348418,-21.35039 0,-8.30156 5.03985,-15.71453 12.452822,-19.27277 l 7.412988,-3.2627 c 7.412988,-3.26171 10.675679,-12.1563 7.412988,-19.56928 -3.55823,-7.41298 -12.156307,-10.6747 -19.865813,-7.41298 l -7.116465,3.26171 C 46.460649,420.07404 34.59888,438.16172 34.59888,458.02753 Z"
   id="path4879"
   inkscape:connector-curvature="0" />
<path
   style="fill:#b7e0f6;stroke-width:0.98839784"
   d="m 271.81437,404.25967 c 0,8.30156 6.52243,14.82598 14.82597,14.82598 h 29.65194 c 8.30351,0 14.82595,-6.52442 14.82595,-14.82598 0,-8.30352 -6.52244,-14.82595 -14.82595,-14.82595 h -29.65194 c -8.30354,0 -14.82597,6.52243 -14.82597,14.82595 z"
   id="path4881"
   inkscape:connector-curvature="0" />
<path
   style="fill:#1bd9de;stroke-width:0.98839784"
   d="m 316.29228,359.78177 h 88.9558 c 24.61209,0 44.47789,19.8658 44.47789,44.4779 0,24.61012 -19.8658,44.47791 -44.47789,44.47791 h -88.9558 c -8.30354,0 -14.82598,-6.52441 -14.82598,-14.82596 v -59.30388 c 0,-8.30353 6.52244,-14.82597 14.82598,-14.82597 z"
   id="path4883"
   inkscape:connector-curvature="0" />
<path
   style="fill:#a4d9f5;stroke-width:0.98839784"
   d="m 112.91359,357.463 41.93378,41.93375 c 5.87107,5.87109 5.87107,15.09581 0,20.9669 l -20.96689,20.96689 c -17.40271,17.40271 -45.497919,17.40271 -62.901638,0 -17.402722,-17.40274 -17.402722,-45.49795 0,-62.90165 L 91.94571,357.462 c 5.872085,-5.8701 15.09679,-5.8701 20.96788,0.001 z"
   id="path4885"
   inkscape:connector-curvature="0" />
<path
   style="fill:#81c8ee;stroke-width:0.98839784"
   d="m 133.88048,378.42987 -62.901638,62.90164 c 17.402704,17.40271 45.497918,17.40271 62.901638,0 l 20.96689,-20.96688 c 5.87107,-5.87108 5.87107,-15.0958 0,-20.96688 z"
   id="path4887"
   inkscape:connector-curvature="0" />
<polygon
   style="fill:#994c0f"
   points="273.487,146.522 393.553,281.015 392.28,324.714 324.399,392.595 280.7,393.868 146.208,273.801 154.905,243.891 246.97,151.826 "
   id="polygon4889"
   transform="matrix(-0.98839785,0,0,0.98839785,509.02985,2.970149)" />
<polygon
   style="fill:#713708"
   points="324.399,392.595 280.7,393.868 146.208,273.801 154.905,243.891 199.241,199.555 358.34,358.654 "
   id="polygon4891"
   transform="matrix(-0.98839785,0,0,0.98839785,509.02985,2.970149)" />
<path
   style="fill:#c85f03;stroke-width:0.98839784"
   d="m 120.04291,280.72478 -32.289968,36.06267 c -15.305338,17.8218 -13.207963,44.24168 3.145078,60.59473 0.209554,0.20954 -0.209543,-0.20955 0,0 l 44.65977,44.65977 c 16.56358,16.14349 42.77192,17.19318 60.17564,1.88585 l 35.85314,-31.65938 z"
   id="path4893"
   inkscape:connector-curvature="0" />
<g
   id="g4899"
   transform="matrix(-0.98839785,0,0,0.98839785,509.02985,2.970149)"
   style="fill:#a4d9f5;fill-opacity:1">
	<path
   style="fill:#a4d9f5;fill-opacity:1"
   d="m 231.061,231.375 c -17.607,17.607 -17.607,46.032 0,63.64 17.607,17.607 46.032,17.607 63.64,0 17.607,-17.607 17.607,-46.032 0,-63.64 -17.607,-17.608 -46.033,-17.607 -63.64,0 z"
   id="path4895"
   inkscape:connector-curvature="0" />
	<path
   style="fill:#a4d9f5;fill-opacity:1"
   d="m 231.061,39.456 c 28.637,28.637 46.669,66.337 42.426,107.066 L 146.208,273.801 C 105.479,278.044 66.87,260.922 39.294,231.223 L 49.476,199.828 201.15,48.153 Z"
   id="path4897"
   inkscape:connector-curvature="0" />
</g>
<path
   style="fill:#994c0f;stroke-width:0.98839784"
   d="m 175.81424,336.49611 -62.90164,62.90164 22.64519,22.64518 c 16.56358,16.1435 42.77192,17.19317 60.17564,1.88586 l 35.85314,-31.66037 z"
   id="path4901"
   inkscape:connector-curvature="0" />
<g
   id="g4907"
   transform="matrix(-0.98839785,0,0,0.98839785,509.02985,2.970149)"
   style="fill:#81c8ee;fill-opacity:1">
	<path
   style="fill:#81c8ee;fill-opacity:1"
   d="m 231.061,231.375 63.64,63.64 c -17.607,17.607 -46.032,17.607 -63.64,0 -17.608,-17.608 -17.608,-46.033 0,-63.64 z"
   id="path4903"
   inkscape:connector-curvature="0" />
	<path
   style="fill:#81c8ee;fill-opacity:1"
   d="m 124.995,124.309 84.853,85.853 -63.64,63.64 C 105.479,278.045 66.87,260.923 39.294,231.224 l 10.182,-31.395 z"
   id="path4905"
   inkscape:connector-curvature="0" />
</g>
<path
   style="fill:#4bb0e7;fill-opacity:1;stroke-width:0.98839784"
   d="M 280.64966,41.968375 470.19174,231.51047 c 15.30732,-16.56358 27.4666,-37.11039 34.17781,-61.43388 9.22572,-32.70806 4.61087,-69.19081 -12.58032,-98.96432 -6.49971,-11.111562 -14.04712,-20.756352 -22.43466,-29.142901 -51.99861,-51.998628 -136.7063,-51.998628 -188.70491,-9.94e-4 z"
   id="path4909"
   inkscape:connector-curvature="0" />
<path
   style="fill:#1f9de0;fill-opacity:1;stroke-width:0.98839784"
   d="m 469.35359,41.968375 -94.35147,94.351475 95.18962,95.18964 c 15.30732,-16.56358 27.4666,-37.11041 34.17781,-61.43389 9.22572,-32.70707 4.61087,-69.18982 -12.58032,-98.96333 -6.49971,-11.112558 -14.04809,-20.756352 -22.43564,-29.143895 z"
   id="path4911"
   inkscape:connector-curvature="0" />
<path
   style="fill:#1bd9de;stroke-width:0.98839784"
   d="m 93.902761,17.796117 c 0,8.301554 6.522419,14.825967 14.825949,14.825967 h 14.82598 v 75.118236 c 0,8.30155 6.52243,14.82596 14.82596,14.82596 8.30354,0 14.82597,-6.52441 14.82597,-14.82596 V 17.796117 c 0,-8.3035306 -6.52243,-14.825968 -14.82597,-14.825968 h -29.65194 c -8.30353,0 -14.825949,6.5224374 -14.825949,14.825968 z"
   id="path4913"
   inkscape:connector-curvature="0" />
<path
   style="fill:#1de8f1;stroke-width:0.98839784"
   d="m 138.38065,74.826667 c 7.7095,-7.118442 18.08767,-11.564255 29.65195,-11.564255 24.61209,0 44.4779,19.865803 44.4779,44.477908 0,24.61011 -19.86581,44.47791 -44.4779,44.47791 -11.56428,0 -21.94245,-4.44878 -29.65195,-11.56427 -9.19209,-8.007 -14.82596,-19.8658 -14.82596,-32.91364 0,-13.047841 5.63387,-24.90861 14.82596,-32.913653 z"
   id="path4915"
   inkscape:connector-curvature="0" />
<g
   id="g4917"
   transform="matrix(-0.98839785,0,0,0.98839785,509.02985,2.970149)">
</g>
<g
   id="g4919"
   transform="matrix(-0.98839785,0,0,0.98839785,509.02985,2.970149)">
</g>
<g
   id="g4921"
   transform="matrix(-0.98839785,0,0,0.98839785,509.02985,2.970149)">
</g>
<g
   id="g4923"
   transform="matrix(-0.98839785,0,0,0.98839785,509.02985,2.970149)">
</g>
<g
   id="g4925"
   transform="matrix(-0.98839785,0,0,0.98839785,509.02985,2.970149)">
</g>
<g
   id="g4927"
   transform="matrix(-0.98839785,0,0,0.98839785,509.02985,2.970149)">
</g>
<g
   id="g4929"
   transform="matrix(-0.98839785,0,0,0.98839785,509.02985,2.970149)">
</g>
<g
   id="g4931"
   transform="matrix(-0.98839785,0,0,0.98839785,509.02985,2.970149)">
</g>
<g
   id="g4933"
   transform="matrix(-0.98839785,0,0,0.98839785,509.02985,2.970149)">
</g>
<g
   id="g4935"
   transform="matrix(-0.98839785,0,0,0.98839785,509.02985,2.970149)">
</g>
<g
   id="g4937"
   transform="matrix(-0.98839785,0,0,0.98839785,509.02985,2.970149)">
</g>
<g
   id="g4939"
   transform="matrix(-0.98839785,0,0,0.98839785,509.02985,2.970149)">
</g>
<g
   id="g4941"
   transform="matrix(-0.98839785,0,0,0.98839785,509.02985,2.970149)">
</g>
<g
   id="g4943"
   transform="matrix(-0.98839785,0,0,0.98839785,509.02985,2.970149)">
</g>
<g
   id="g4945"
   transform="matrix(-0.98839785,0,0,0.98839785,509.02985,2.970149)">
</g>
</svg>