<?xml version="1.0" encoding="UTF-8" standalone="no"?>
<!-- Generator: Adobe Illustrator 19.0.0, SVG Export Plug-In . SVG Version: 6.00 Build 0)  -->

<svg
   xmlns:dc="http://purl.org/dc/elements/1.1/"
   xmlns:cc="http://creativecommons.org/ns#"
   xmlns:rdf="http://www.w3.org/1999/02/22-rdf-syntax-ns#"
   xmlns:svg="http://www.w3.org/2000/svg"
   xmlns="http://www.w3.org/2000/svg"
   xmlns:sodipodi="http://sodipodi.sourceforge.net/DTD/sodipodi-0.dtd"
   xmlns:inkscape="http://www.inkscape.org/namespaces/inkscape"
   version="1.1"
   id="Layer_1"
   x="0px"
   y="0px"
   viewBox="0 0 512 512"
   style="enable-background:new 0 0 512 512;"
   xml:space="preserve"
   inkscape:version="0.91 r13725"
   sodipodi:docname="icon.svg"><metadata
     id="metadata3514"><rdf:RDF><cc:Work
         rdf:about=""><dc:format>image/svg+xml</dc:format><dc:type
           rdf:resource="http://purl.org/dc/dcmitype/StillImage" /></cc:Work></rdf:RDF></metadata><defs
     id="defs3512" /><sodipodi:namedview
     pagecolor="#ffffff"
     bordercolor="#666666"
     borderopacity="1"
     objecttolerance="10"
     gridtolerance="10"
     guidetolerance="10"
     inkscape:pageopacity="0"
     inkscape:pageshadow="2"
     inkscape:window-width="1366"
     inkscape:window-height="713"
     id="namedview3510"
     showgrid="false"
     inkscape:zoom="1.0332031"
     inkscape:cx="256"
     inkscape:cy="264.51806"
     inkscape:window-x="0"
     inkscape:window-y="0"
     inkscape:window-maximized="1"
     inkscape:current-layer="Layer_1" /><path
     style="fill:#d7ebff"
     d="m 43.798517,486.93156 c -4.958546,0 -9.917091,-1.89257 -13.702223,-5.67886 -7.570263,-7.56329 -7.570263,-19.83535 0,-27.40445 l 54.810047,-54.81586 c 7.570263,-7.57026 19.835349,-7.57026 27.404439,0 7.57027,7.56329 7.57027,19.83535 0,27.40445 L 57.500735,481.2527 c -3.785132,3.78745 -8.743673,5.67886 -13.702218,5.67886 z"
     id="path3446"
     inkscape:connector-curvature="0" /><path
     style="fill:#bddeff"
     d="m 30.097456,481.25502 c 3.785132,3.78513 8.744839,5.67886 13.702223,5.67886 4.957383,0 9.917086,-1.89257 13.702217,-5.67886 l 54.810054,-54.81586 c 7.57026,-7.57026 7.57026,-19.83651 0.002,-27.40096 l -82.216518,82.21682 z"
     id="path3448"
     inkscape:connector-curvature="0" /><path
     style="fill:#1e90ff;fill-opacity:1"
     d="m 490.05947,156.9536 c 0,29.71642 -9.43146,57.88184 -27.00479,81.13751 -3.74679,5.16767 -8.00942,10.07742 -12.66125,14.72925 -4.65183,4.65067 -9.56042,8.91446 -14.72809,12.79137 l -27.7797,-27.9075 -67.18435,-67.05538 -94.96288,-94.962883 c 3.87459,-5.167668 8.13954,-10.077414 12.79137,-14.729245 4.65184,-4.651831 9.56042,-8.914461 14.72925,-12.661253 23.25568,-17.571003 51.42226,-27.002463 81.13752,-27.002463 36.30496,0 70.41413,14.083291 95.99572,39.664878 25.58275,25.581582 39.6672,59.690756 39.6672,95.995716 z"
     id="path3450"
     inkscape:connector-curvature="0" /><path
     style="fill:#0073e6;fill-opacity:1"
     d="m 490.05947,156.9536 c 0,29.71642 -9.43146,57.88184 -27.00479,81.13751 -3.74679,5.16767 -8.00942,10.07742 -12.66125,14.72925 -4.65183,4.65067 -9.56042,8.91446 -14.72809,12.79137 l -27.7797,-27.9075 -67.18435,-67.05538 109.69098,-109.690966 c 25.58275,25.581582 39.6672,59.690756 39.6672,95.995716 z"
     id="path3452"
     inkscape:connector-curvature="0" /><path
     style="fill:#649dad;fill-opacity:1"
     d="m 388.7648,288.22145 c -11.88518,2.97187 -24.15955,4.52171 -36.56405,4.26379 l -7.88162,6.07271 -175.58456,133.72272 c -11.36701,8.65654 -24.93447,12.79138 -38.50076,12.79138 -16.53817,0 -32.945046,-6.33179 -45.349543,-18.60501 -22.351794,-22.48075 -24.935628,-58.39884 -5.943748,-83.7225 l 133.852841,-175.71236 6.07271,-7.88163 c -0.25792,-12.40333 1.29192,-24.67771 4.26379,-36.56404 L 388.7648,288.22145 Z"
     id="path3454"
     inkscape:connector-curvature="0" /><path
     style="fill:#4f8796;fill-opacity:1"
     d="m 84.884267,426.46588 c 12.405658,12.27438 28.811373,18.605 45.349543,18.605 13.56629,0 27.13375,-4.13483 38.50192,-12.79253 l 175.5834,-133.72157 7.88162,-6.0727 c 12.4045,0.25792 24.67771,-1.29192 36.56405,-4.26379 L 305.94849,205.40282 84.884267,426.46588 Z"
     id="path3456"
     inkscape:connector-curvature="0" /><path
     style="fill:#ffefd9"
     d="m 217.37432,313.3511 c -4.95854,0 -9.91709,-1.89257 -13.70222,-5.67886 -7.57026,-7.57027 -7.57026,-19.83999 0,-27.41142 l 27.41722,-27.40444 c 7.57027,-7.55865 19.83535,-7.5633 27.40445,0.007 7.57026,7.57026 7.57026,19.83999 0,27.41141 l -27.41723,27.40445 c -3.78513,3.77932 -8.74367,5.67189 -13.70222,5.67189 z"
     id="path3458"
     inkscape:connector-curvature="0" /><path
     style="fill:#ffd9b3"
     d="m 258.49145,252.86218 -54.81587,54.8147 c 3.7863,3.78397 8.74136,5.67538 13.69874,5.67538 4.95855,0 9.91709,-1.89257 13.70222,-5.67189 l 27.41723,-27.40445 c 7.57026,-7.57026 7.57026,-19.83999 0,-27.41141 l -0.002,-0.002 z"
     id="path3474"
     inkscape:connector-curvature="0" /><path
     style="fill:#ffc033"
     d="m 463.05468,238.09111 c -3.74679,5.16767 -8.00942,10.07742 -12.66125,14.72925 -4.65183,4.65067 -9.56042,8.91446 -14.72809,12.79137 -14.08445,10.46546 -30.10562,18.08801 -46.9017,22.60972 -11.88518,2.97187 -24.15955,4.52171 -36.56405,4.26379 L 218.86723,159.15055 c -0.25792,-12.40333 1.29192,-24.67771 4.26379,-36.56404 4.52171,-16.79608 12.14658,-32.817251 22.60971,-46.899381 3.87459,-5.167669 8.13955,-10.077414 12.79138,-14.729245 4.65067,-4.65067 9.56042,-8.914461 14.72925,-12.661254 l 27.77738,27.778539 134.24088,134.239721 27.77506,27.77622 z"
     id="path3476"
     inkscape:connector-curvature="0" /><path
     style="fill:#f9a926"
     d="m 368.15686,143.19561 -82.62345,82.62229 66.66734,66.66734 c 12.4045,0.25792 24.67771,-1.29192 36.56405,-4.26379 16.79608,-4.52171 32.81725,-12.14542 46.90054,-22.60972 5.16651,-3.87575 10.07626,-8.13954 14.72809,-12.79137 4.65299,-4.65067 8.9133,-9.56042 12.66125,-14.72925 L 435.2773,210.31257 368.15686,143.19561 Z"
     id="path3478"
     inkscape:connector-curvature="0" /><g
     id="g3480" /><g
     id="g3482" /><g
     id="g3484" /><g
     id="g3486" /><g
     id="g3488" /><g
     id="g3490" /><g
     id="g3492" /><g
     id="g3494" /><g
     id="g3496" /><g
     id="g3498" /><g
     id="g3500" /><g
     id="g3502" /><g
     id="g3504" /><g
     id="g3506" /><g
     id="g3508" /></svg>