<svg width="580" height="400" xmlns="http://www.w3.org/2000/svg">
 <!-- Created with Method Draw - http://github.com/duopixel/Method-Draw/ -->

 <g>
  <title>background</title>
  <rect x="-1" y="-1" width="582" height="402" id="canvas_background" fill="#f4f4f4"/>
 </g>
 <g>
  <title>Layer 1</title>
  <text fill="#1e1e1e" stroke="null" stroke-width="0" stroke-opacity="null" x="241" y="178" id="svg_64" font-size="100" font-family="Helvetica, Arial, sans-serif" text-anchor="start" xml:space="preserve" font-weight="bold">Handy</text>
  <text fill="#1e1e1e" stroke="null" stroke-width="0" stroke-opacity="null" x="244" y="277" id="svg_65" font-size="80" font-family="Helvetica, Arial, sans-serif" text-anchor="start" xml:space="preserve" font-weight="bold">Karaoke</text>
  <g stroke="null" id="svg_89">
   <g stroke="null" transform="matrix(0.45108337181832975,0,0,0.46510250916202817,-238.86783540774394,-418.4959628740795) " id="svg_87">
    <title stroke="null" transform="translate(-292.62884521484375,-163.4048309326172) translate(323.66522216796875,144.05426025390625) translate(6.62209415435791,6.450191020965576) translate(-8.680349349975586,-4.195740222930908) translate(2.082178831100464,16.782960891723633) translate(-181.14956665039062,-34.68156433105469) translate(91.61587524414062,24.48110580444336) translate(-3376.76904296875,-1636.7744140625) translate(4020.25634765625,0) translate(0,2690.884033203125) ">background</title>
    <rect stroke="null" fill="none" id="svg_85" height="514.002" width="514.002" y="1042.596002" x="584.013914"/>
   </g>
   <g stroke="null" transform="matrix(0.45108337181832975,0,0,0.46510250916202817,-238.86783540774394,-418.4959628740795) " id="svg_88">
    <title stroke="null" transform="translate(-292.62884521484375,-163.4048309326172) translate(323.66522216796875,144.05426025390625) translate(6.62209415435791,6.450191020965576) translate(-8.680349349975586,-4.195740222930908) translate(2.082178831100464,16.782960891723633) translate(-181.14956665039062,-34.68156433105469) translate(91.61587524414062,24.48110580444336) translate(-3376.76904296875,-1636.7744140625) translate(4020.25634765625,0) translate(0,2690.884033203125) ">Layer 1</title>
    <g stroke="null" id="svg_82">
     <g stroke="null" id="svg_83">
      <path stroke="null" fill="#444444" id="svg_84" d="m1007.384914,1388.002002c-26.619,-26.622 -69.935,-26.619 -96.556,-0.003l-96.556,96.558c-26.62,26.623 -69.936,26.623 -96.559,0c-20.977,-20.977 -25.411,-52.321 -13.323,-77.695l7.959,7.961c4.415,4.415 10.245,6.668 16.1,6.667c4.907,0 9.835,-1.581 13.966,-4.793l134.818,-104.861c-8.83,-2.205 -17.427,-5.162 -25.71,-8.835c-7.562,-3.355 -14.858,-7.318 -21.841,-11.847c-9.331,-6.052 -18.098,-13.12 -26.142,-21.166c-0.062,-0.062 -0.121,-0.123 -0.184,-0.185c-8.034,-8.063 -15.018,-16.781 -20.965,-25.978c-4.549,-7.036 -8.487,-14.353 -11.815,-21.879c-3.696,-8.352 -6.638,-16.958 -8.827,-25.717l-104.911,134.886c-7.046,9.061 -6.247,21.95 1.871,30.066l12.349,12.349c-29.207,44.16 -24.382,104.358 14.473,143.218c44.367,44.364 116.561,44.366 160.928,-0.002l96.556,-96.558c8.876,-8.873 23.313,-8.873 32.188,0.002c4.297,4.298 6.665,10.012 6.665,16.09c0,6.08 -2.368,11.797 -6.668,16.095l-64.371,64.371c-8.887,8.887 -8.887,23.297 0,32.185c4.445,4.445 10.269,6.667 16.093,6.667c5.823,0 11.649,-2.221 16.09,-6.667l64.371,-64.371c12.897,-12.897 20,-30.043 20,-48.28s-7.102,-35.384 -19.999,-48.278z"/>
     </g>
    </g>
    <g stroke="null" id="svg_79">
     <g stroke="null" id="svg_80">
      <path stroke="null" fill="#2690ff" id="svg_81" d="m996.656914,1076.871002c-22.181,-22.181 -51.326,-33.275 -80.465,-33.275c-21.906,0 -43.805,6.268 -62.752,18.802l157.704,157.704c12.253,-18.457 18.844,-40.104 18.841,-62.766c0.004,-30.395 -11.835,-58.97 -33.328,-80.465z"/>
     </g>
    </g>
    <g stroke="null" id="svg_76">
     <g stroke="null" id="svg_77">
      <path stroke="null" fill="#2690ff" id="svg_78" d="m821.253914,1094.583002c-9.723,14.701 -15.649,31.182 -17.828,48.059c-1.539,11.894 -1.212,23.98 0.995,35.786c1.69,9.022 4.47,17.873 8.343,26.346c5.476,11.971 13.121,23.185 22.964,33.026l0,0.002c9.841,9.841 21.058,17.488 33.031,22.965c8.472,3.874 17.324,6.653 26.341,8.342c6.967,1.303 14.029,1.969 21.093,1.969c4.91,0 9.818,-0.343 14.696,-0.973c16.876,-2.179 33.358,-8.107 48.057,-17.831l-157.692,-157.691z"/>
     </g>
    </g>
    <g stroke="null" id="svg_75"/>
    <g stroke="null" id="svg_74"/>
    <g stroke="null" id="svg_73"/>
    <g stroke="null" id="svg_72"/>
    <g stroke="null" id="svg_71"/>
    <g stroke="null" id="svg_70"/>
    <g stroke="null" id="svg_69"/>
    <g stroke="null" id="svg_68"/>
    <g stroke="null" id="svg_67"/>
    <g stroke="null" id="svg_66"/>
    <g stroke="null" id="svg_63"/>
    <g stroke="null" id="svg_62"/>
    <g stroke="null" id="svg_61"/>
    <g stroke="null" id="svg_60"/>
    <g stroke="null" id="svg_59"/>
    <path stroke="null" id="svg_55" d="m632.014924,1122.597002" opacity="0.5" fill-opacity="null" stroke-width="1.5" fill="#00bf5f"/>
   </g>
  </g>
 </g>
</svg>