<svg width="580" height="400" xmlns="http://www.w3.org/2000/svg">
 <!-- Created with Method Draw - http://github.com/duopixel/Method-Draw/ -->

 <g>
  <title>background</title>
  <rect fill="#f4f4f4" id="canvas_background" height="402" width="582" y="-1" x="-1"/>
 </g>
 <g>
  <title>Layer 1</title>
  <g stroke="null" id="svg_58">
   <g stroke="null" transform="matrix(0.4475414358752944,0,0,0.46317374877047757,-1456.3010658648727,-1041.4469726933696) " id="svg_56">
    <title stroke="null" transform="translate(-2.2344300746917725,-10.795084953308105) translate(11.172149658203125,25.908203125) translate(-16.1403751373291,21.42926788330078) translate(-22.193016052246094,1.9481152296066284) translate(-149.29847717285156,0) translate(157.36866760253906,-8.192605018615723) translate(-20.17547035217285,-34.818572998046875) translate(-22.193016052246094,-59.396385192871094) translate(-640.1546020507812,-216.79534912109375) translate(3986.2578125,0) translate(0,2690.884033203125) ">background</title>
    <rect stroke="null" x="3281.409243" y="2409.171622" width="582" height="402" id="svg_54" fill="none"/>
   </g>
   <g stroke="null" transform="matrix(0.4475414358752944,0,0,0.46317374877047757,-1456.3010658648727,-1041.4469726933696) " id="svg_57">
    <title stroke="null" transform="translate(-2.2344300746917725,-10.795084953308105) translate(11.172149658203125,25.908203125) translate(-16.1403751373291,21.42926788330078) translate(-22.193016052246094,1.9481152296066284) translate(-149.29847717285156,0) translate(157.36866760253906,-8.192605018615723) translate(-20.17547035217285,-34.818572998046875) translate(-22.193016052246094,-59.396385192871094) translate(-640.1546020507812,-216.79534912109375) translate(3986.2578125,0) translate(0,2690.884033203125) ">Layer 1</title>
    <g stroke="null" id="svg_51">
     <g stroke="null" id="svg_52">
      <path stroke="null" d="m3704.780243,2754.577622c-26.619,-26.622 -69.935,-26.619 -96.556,-0.003l-96.556,96.558c-26.62,26.623 -69.936,26.623 -96.559,0c-20.977,-20.977 -25.411,-52.321 -13.323,-77.695l7.959,7.961c4.415,4.415 10.245,6.668 16.1,6.667c4.907,0 9.835,-1.581 13.966,-4.793l134.818,-104.861c-8.83,-2.205 -17.427,-5.162 -25.71,-8.835c-7.562,-3.355 -14.858,-7.318 -21.841,-11.847c-9.331,-6.052 -18.098,-13.12 -26.142,-21.166c-0.062,-0.062 -0.121,-0.123 -0.184,-0.185c-8.034,-8.063 -15.018,-16.781 -20.965,-25.978c-4.549,-7.036 -8.487,-14.353 -11.815,-21.879c-3.696,-8.352 -6.638,-16.958 -8.827,-25.717l-104.911,134.886c-7.046,9.061 -6.247,21.95 1.871,30.066l12.349,12.349c-29.207,44.16 -24.382,104.358 14.473,143.218c44.367,44.364 116.561,44.366 160.928,-0.002l96.556,-96.558c8.876,-8.873 23.313,-8.873 32.188,0.002c4.297,4.298 6.665,10.012 6.665,16.09c0,6.08 -2.368,11.797 -6.668,16.095l-64.371,64.371c-8.887,8.887 -8.887,23.297 0,32.185c4.445,4.445 10.269,6.667 16.093,6.667c5.823,0 11.649,-2.221 16.09,-6.667l64.371,-64.371c12.897,-12.897 20,-30.043 20,-48.28s-7.102,-35.384 -19.999,-48.278z" id="svg_53" fill="#444444"/>
     </g>
    </g>
    <g stroke="null" id="svg_48">
     <g stroke="null" id="svg_49">
      <path stroke="null" d="m3694.052243,2443.446622c-22.181,-22.181 -51.326,-33.275 -80.465,-33.275c-21.906,0 -43.805,6.268 -62.752,18.802l157.704,157.704c12.253,-18.457 18.844,-40.104 18.841,-62.766c0.004,-30.395 -11.835,-58.97 -33.328,-80.465z" id="svg_50" fill="#00bf5f"/>
     </g>
    </g>
    <g stroke="null" id="svg_45">
     <g stroke="null" id="svg_46">
      <path stroke="null" d="m3518.649243,2461.158622c-9.723,14.701 -15.649,31.182 -17.828,48.059c-1.539,11.894 -1.212,23.98 0.995,35.786c1.69,9.022 4.47,17.873 8.343,26.346c5.476,11.971 13.121,23.185 22.964,33.026l0,0.002c9.841,9.841 21.058,17.488 33.031,22.965c8.472,3.874 17.324,6.653 26.341,8.342c6.967,1.303 14.029,1.969 21.093,1.969c4.91,0 9.818,-0.343 14.696,-0.973c16.876,-2.179 33.358,-8.107 48.057,-17.831l-157.692,-157.691z" id="svg_47" fill="#00bf5f"/>
     </g>
    </g>
    <g stroke="null" id="svg_44"/>
    <g stroke="null" id="svg_43"/>
    <g stroke="null" id="svg_42"/>
    <g stroke="null" id="svg_41"/>
    <g stroke="null" id="svg_40"/>
    <g stroke="null" id="svg_39"/>
    <g stroke="null" id="svg_38"/>
    <g stroke="null" id="svg_37"/>
    <g stroke="null" id="svg_36"/>
    <g stroke="null" id="svg_35"/>
    <g stroke="null" id="svg_34"/>
    <g stroke="null" id="svg_33"/>
    <g stroke="null" id="svg_32"/>
    <g stroke="null" id="svg_31"/>
    <g stroke="null" id="svg_30"/>
    <path stroke="null" fill="#00bf5f" stroke-width="1.5" fill-opacity="null" opacity="0.5" d="m3329.41025,2489.172621" id="svg_29"/>
   </g>
  </g>
  <text font-weight="bold" xml:space="preserve" text-anchor="start" font-family="Helvetica, Arial, sans-serif" font-size="100" id="svg_64" y="178" x="241" stroke-opacity="null" stroke-width="0" stroke="null" fill="#1e1e1e">Handy</text>
  <text font-weight="bold" xml:space="preserve" text-anchor="start" font-family="Helvetica, Arial, sans-serif" font-size="80" id="svg_65" y="277" x="244" stroke-opacity="null" stroke-width="0" stroke="null" fill="#1e1e1e">Karaoke</text>
 </g>
</svg>